<svg viewBox="2.2974084507042254 0 32.563267605633804 34.599999999999994" xmlns="http://www.w3.org/2000/svg" data-name="Layer 2" id="Layer_2" style="max-height: 500px" width="32.563267605633804" height="34.599999999999994">
  <defs>
    <style>
      .cls-1 {
        fill: #f24828;
      }

      .cls-2 {
        fill: #fed210;
      }
    </style>
  </defs>
  <g data-name="Layer 2" id="Layer_2-2">
    <g>
      <g>
        <g>
          <path d="M0,38.43c0-1.43,1.18-2.44,2.86-2.44,1.13,0,1.99.48,2.33,1.31l-1.35.66c-.24-.45-.59-.64-.99-.64-.61,0-1.08.4-1.08,1.12s.48,1.14,1.08,1.14c.4,0,.75-.19.99-.64l1.35.66c-.34.82-1.2,1.31-2.33,1.31-1.67,0-2.86-1.02-2.86-2.46Z" class="cls-1"/>
          <path d="M10.95,36.06v4.75h-1.66v-.51c-.38.39-.91.59-1.48.59-1.22,0-2.11-.67-2.11-2.17v-2.66h1.75v2.38c0,.74.3,1.03.83,1.03s.94-.32.94-1.12v-2.29h1.75Z" class="cls-1"/>
          <path d="M20.42,38.1v2.72h-1.75v-2.44c0-.68-.29-.97-.75-.97-.51,0-.87.32-.87,1.06v2.36h-1.75v-2.44c0-.68-.28-.97-.75-.97-.51,0-.88.32-.88,1.06v2.36h-1.75v-4.75h1.66v.5c.38-.39.9-.58,1.49-.58.68,0,1.26.24,1.61.74.39-.47,1.01-.74,1.73-.74,1.16,0,2.01.64,2.01,2.11Z" class="cls-1"/>
          <path d="M26.96,38.44c0,1.51-1.09,2.45-2.44,2.45-.58,0-1.05-.17-1.39-.5v2.12h-1.75v-6.45h1.66v.47c.33-.38.82-.55,1.47-.55,1.35,0,2.44.95,2.44,2.45ZM25.2,38.44c0-.72-.46-1.13-1.05-1.13s-1.05.41-1.05,1.13.46,1.13,1.05,1.13,1.05-.41,1.05-1.13Z" class="cls-1"/>
          <path d="M27.63,34.31h1.75v6.5h-1.75v-6.5Z" class="cls-1"/>
          <path d="M35.43,38.86h-3.62c.15.48.58.76,1.22.76.49,0,.81-.13,1.15-.41l.92.91c-.48.51-1.18.77-2.12.77-1.77,0-2.92-1.04-2.92-2.46s1.17-2.44,2.74-2.44c1.47,0,2.66.89,2.66,2.46,0,.12-.02.28-.03.41ZM31.78,37.98h2.04c-.09-.5-.48-.81-1.02-.81s-.92.32-1.02.81Z" class="cls-1"/>
        </g>
        <g>
          <path d="M13.35,45.93c0,1.51-1.09,2.45-2.44,2.45-.58,0-1.05-.17-1.39-.5v2.12h-1.75v-6.45h1.66v.47c.33-.38.82-.55,1.47-.55,1.35,0,2.44.95,2.44,2.45ZM11.59,45.93c0-.72-.46-1.13-1.05-1.13s-1.05.41-1.05,1.13.46,1.13,1.05,1.13,1.05-.41,1.05-1.13Z" class="cls-1"/>
          <path d="M14.02,41.8h1.75v6.5h-1.75v-6.5Z" class="cls-1"/>
          <path d="M21.42,45.66v2.64h-1.63v-.61c-.25.46-.74.69-1.47.69-1.19,0-1.86-.64-1.86-1.46,0-.88.67-1.42,2.21-1.42h.99c-.03-.48-.37-.75-1.06-.75-.48,0-1.01.16-1.35.41l-.59-1.13c.57-.36,1.41-.55,2.2-.55,1.62,0,2.54.68,2.54,2.19ZM19.68,46.78v-.41h-.75c-.56,0-.76.19-.76.48s.24.48.65.48c.39,0,.73-.18.86-.55Z" class="cls-1"/>
          <path d="M27.68,45.58v2.72h-1.75v-2.44c0-.68-.31-.97-.82-.97-.56,0-.99.33-.99,1.12v2.3h-1.75v-4.75h1.66v.52c.39-.39.96-.6,1.58-.6,1.17,0,2.06.64,2.06,2.11Z" class="cls-1"/>
        </g>
      </g>
      <g>
        <g>
          <path d="M23.76,18.7c-1.17,1.32-2.81,2.56-4.82,2.94l1.71,1.71c.22.22.06.59-.24.59h-5.35c-.31,0-.46-.37-.24-.59l1.71-1.71c-2.02-.38-3.65-1.62-4.82-2.94-3.57-4.02-3.44-9.96-3.44-9.96C8.26,3.92,12.5,0,17.73,0s9.47,3.92,9.47,8.74c0,0,.13,5.94-3.44,9.96Z" class="cls-2"/>
          <path d="M17.77,33.94s0-.04,0-.1l-1.33.09c0-.14-.04-.56,1.06-2.62.71-1.34.17-1.91-.66-2.78-.47-.5-1.01-1.06-1.24-1.81-.65-2.12,2.12-4.23,2.44-4.46l.79,1.07-.39-.54.39.54c-.61.45-2.27,1.96-1.95,3,.14.45.52.85.93,1.28.86.9,2.03,2.14.87,4.32-.83,1.55-.91,1.98-.91,2Z" class="cls-2"/>
        </g>
        <path d="M22.61,9.31c0,.11,0,.23-.01.34,0,0,0,.02,0,.03-.02.2-.07.48-.16.83,0,0,0,0,0,0-.34,1.28-1.34,3.5-4.23,6.19-.26.25-.68.25-.94,0-2.88-2.68-3.88-4.89-4.23-6.18-.1-.36-.14-.64-.16-.84,0,0,0-.02,0-.03,0-.11-.01-.22-.01-.34,0-2.49,2.18-4.5,4.88-4.5s4.88,2.02,4.88,4.5Z" class="cls-1"/>
        <circle r="2.16" cy="9.36" cx="17.73" class="cls-2"/>
      </g>
    </g>
  </g>
</svg>